<?xml version="1.0" standalone="no"?>
<!DOCTYPE svg PUBLIC "-//W3C//DTD SVG 20010904//EN"
 "http://www.w3.org/TR/2001/REC-SVG-20010904/DTD/svg10.dtd">
<svg version="1.0" xmlns="http://www.w3.org/2000/svg"
 width="233.000000pt" height="69.000000pt" viewBox="0 0 233.000000 69.000000"
 preserveAspectRatio="xMidYMid meet">

<g transform="translate(0.000000,69.000000) scale(0.100000,-0.100000)"
fill="#000000" stroke="none">
<path d="M700 420 c-11 -7 -6 -8 17 -4 37 7 63 -8 63 -38 0 -10 -21 -41 -46
-68 l-47 -50 54 2 c44 1 47 2 16 5 l-37 4 35 41 c52 61 45 118 -14 118 -15 0
-33 -5 -41 -10z"/>
<path d="M842 421 c-8 -5 4 -7 30 -7 39 1 43 -1 43 -24 0 -17 -6 -26 -20 -28
-33 -6 -42 -22 -12 -22 33 0 52 -30 33 -55 -9 -13 -22 -16 -49 -13 -41 5 -50
-7 -13 -16 61 -15 109 39 70 79 -13 12 -14 19 -5 28 16 16 14 54 -5 61 -22 8
-57 7 -72 -3z"/>
<path d="M987 412 c-25 -28 -23 -116 3 -142 24 -24 38 -25 67 -5 38 27 42 115
6 150 -20 20 -56 19 -76 -3z m72 -6 c7 -8 11 -37 9 -67 -2 -40 -8 -55 -25 -66
-19 -13 -24 -12 -42 6 -23 23 -29 88 -11 122 12 22 52 25 69 5z"/>
<path d="M1400 410 c-15 -15 -20 -33 -20 -75 0 -48 3 -57 26 -72 24 -15 29
-15 53 -2 18 10 27 24 29 47 5 47 -14 65 -60 59 -21 -3 -38 -2 -38 2 0 19 33
50 58 54 l27 4 -27 2 c-16 0 -37 -8 -48 -19z m70 -64 c16 -21 9 -56 -15 -72
-41 -27 -88 39 -53 74 16 16 53 15 68 -2z"/>
<path d="M1532 418 c-17 -17 -15 -73 3 -88 8 -7 31 -10 50 -8 39 5 41 2 19
-30 -8 -12 -26 -22 -40 -22 -13 0 -24 -5 -24 -11 0 -17 53 -1 73 23 22 26 23
110 1 132 -18 19 -65 21 -82 4z m80 -24 c14 -31 1 -57 -31 -62 -28 -4 -51 14
-51 42 0 50 62 65 82 20z"/>
<path d="M1193 352 l27 -28 -25 -24 c-14 -13 -23 -26 -20 -28 3 -3 16 5 30 18
l25 23 25 -23 c14 -13 25 -19 25 -13 0 5 -9 18 -20 28 l-20 18 20 22 c29 31
25 43 -5 15 l-25 -23 -23 21 c-34 32 -45 27 -14 -6z"/>
</g>
</svg>
